<svg width="46" height="50" viewBox="0 0 46 50" fill="none" xmlns="http://www.w3.org/2000/svg">
<path d="M23 14.1111V27.4444" stroke="white" stroke-width="5" stroke-linecap="round"/>
<path d="M23.0001 36.3334C24.2274 36.3334 25.2223 35.3384 25.2223 34.1111C25.2223 32.8838 24.2274 31.8889 23.0001 31.8889C21.7728 31.8889 20.7778 32.8838 20.7778 34.1111C20.7778 35.3384 21.7728 36.3334 23.0001 36.3334Z" fill="white"/>
<path d="M13.7622 7.00444C18.2711 4.33556 20.5244 3 23 3C25.4756 3 27.7289 4.33333 32.2378 7.00444L33.7622 7.90667C38.2711 10.5778 40.5244 11.9133 41.7622 14.1111C43 16.3111 43 18.9778 43 24.32V26.1244C43 31.4644 43 34.1356 41.7622 36.3333C40.5244 38.5333 38.2711 39.8667 33.7622 42.5356L32.2378 43.44C27.7289 46.1089 25.4756 47.4444 23 47.4444C20.5244 47.4444 18.2711 46.1111 13.7622 43.44L12.2378 42.5356C7.72889 39.8689 5.47556 38.5311 4.23778 36.3333C3 34.1333 3 31.4667 3 26.1244V24.32C3 18.9778 3 16.3089 4.23778 14.1111C5.47556 11.9111 7.72889 10.5778 12.2378 7.90667L13.7622 7.00444Z" stroke="white" stroke-width="5"/>
</svg>
