<svg width="48" height="49" viewBox="0 0 48 49" fill="none" xmlns="http://www.w3.org/2000/svg">
<path d="M40.9767 7.05427C38.7543 4.81425 36.1096 3.03735 33.1957 1.82647C30.2819 0.615598 27.1568 -0.00519774 24.0014 3.27789e-05C20.8453 -0.00490516 17.7195 0.616005 14.8049 1.82685C11.8903 3.03769 9.24475 4.81442 7.02123 7.05427C-2.34041 16.4135 -2.34041 31.6481 7.02123 41.0097C9.24479 43.2502 11.8907 45.0273 14.8058 46.2382C17.7209 47.449 20.8472 48.0696 24.0038 48.064C27.159 48.0695 30.284 47.4491 33.1979 46.2386C36.1117 45.0282 38.7565 43.2517 40.9791 41.0121C50.3407 31.6529 50.3407 16.4183 40.9767 7.05427ZM24.4335 4.82371H23.5716C23.718 4.82131 23.8573 4.8021 24.0038 4.8021C24.1502 4.8021 24.2871 4.82131 24.4335 4.82371ZM38.9886 36.0372H33.6031L30.5826 42.0782C28.4755 42.8566 26.2476 43.2573 24.0014 43.2619C21.7509 43.2578 19.5189 42.8562 17.4081 42.0758L14.3948 36.0612H9.02849C7.04869 33.5998 5.70981 30.6861 5.13161 27.5807L9.59274 21.631L6.67308 15.7892C7.6047 13.8074 8.87098 12.001 10.4163 10.4493C12.5791 8.27895 15.2301 6.65789 18.1476 5.7217L23.9989 9.62578L29.8527 5.7241C32.7693 6.66095 35.42 8.28099 37.584 10.4493C39.1276 11.9991 40.3931 13.803 41.3248 15.782L38.4052 21.631L42.8663 27.5807C42.2907 30.6761 40.9586 33.5812 38.9886 36.0372Z" fill="white"/>
<path d="M15.5953 21.631L19.1969 31.2351H28.801L32.4026 21.631L23.999 15.6284L15.5953 21.631Z" fill="white"/>
</svg>
