<svg viewBox="0 0 640 400" data-background-color="#ffffff" preserveAspectRatio="xMidYMid meet" height="400" width="640" xmlns="http://www.w3.org/2000/svg" xmlns:xlink="http://www.w3.org/1999/xlink"><rect width="300" height="200" x="0" y="0" opacity="0" fill="#ffffff" data-fill-palette-color="background" id="background"></rect><g id="tight-bounds" transform="matrix(1,0,0,1,122.24000000000001,137.91696017037393)"><svg viewBox="0 0 395.52 124.16607965925216" height="124.16607965925216" width="395.52"><g><svg viewBox="0 0 397.4976 124.78691005754843" height="124.16607965925216" width="395.52"><g><rect width="397.4976" height="3.8220582409581496" x="0" y="68.57740007118791" fill="#ff585f" opacity="1" stroke-width="0" stroke="transparent" fill-opacity="1" class="rect-r-0" data-fill-palette-color="secondary" rx="1%" id="r-0" data-palette-color="#ff585f"></rect></g><g transform="matrix(1,0,0,1,0.9887999999999693,82.40484637748153)"><svg viewBox="0 0 395.52000000000004 42.382063680066885" height="42.382063680066885" width="395.52000000000004"><g id="textblocktransform"><svg viewBox="0 0 395.52000000000004 42.382063680066885" height="42.382063680066885" width="395.52000000000004" id="textblock"><g><svg viewBox="0 0 395.52000000000004 42.382063680066885" height="42.382063680066885" width="395.52000000000004"><g transform="matrix(1,0,0,1,0,0)"><svg width="395.52000000000004" viewBox="0.9800000190734863 -37.54999923706055 350.3899841308594 37.54999923706055" height="42.382063680066885" data-palette-color="#1e55b3"><path d="M35.33-35.01L35.33-28.66 21.34-28.66 21.34 0 14.99 0 14.99-28.66 0.98-28.66 0.98-35.01 35.33-35.01ZM64.89-17.65L64.89-17.65Q64.89-16.33 64.43-14.81 63.96-13.28 62.92-11.98 61.89-10.67 60.21-9.79 58.54-8.91 56.15-8.91L56.15-8.91 44.7-8.91 44.7-14.94 56.15-14.94Q57.44-14.94 58.15-15.73 58.86-16.53 58.86-17.7L58.86-17.7Q58.86-18.95 58.07-19.65 57.27-20.36 56.15-20.36L56.15-20.36 44.7-20.36Q43.41-20.36 42.7-19.57 41.99-18.77 41.99-17.6L41.99-17.6 41.99-8.74Q41.99-7.47 42.78-6.76 43.58-6.05 44.75-6.05L44.75-6.05 56.15-6.05 56.15 0 44.7 0Q43.38 0 41.86-0.46 40.33-0.93 39.02-1.97 37.72-3 36.84-4.68 35.96-6.35 35.96-8.74L35.96-8.74 35.96-17.65Q35.96-18.97 36.42-20.5 36.89-22.02 37.92-23.33 38.96-24.63 40.63-25.51 42.31-26.39 44.7-26.39L44.7-26.39 56.15-26.39Q57.47-26.39 58.99-25.93 60.52-25.46 61.83-24.43 63.13-23.39 64.01-21.72 64.89-20.04 64.89-17.65ZM96.21-17.65L96.21-8.74Q96.21-7.42 95.75-5.9 95.28-4.37 94.25-3.06 93.21-1.76 91.54-0.88 89.86 0 87.47 0L87.47 0 76.02 0Q74.7 0 73.18-0.46 71.65-0.93 70.34-1.97 69.04-3 68.16-4.68 67.28-6.35 67.28-8.74L67.28-8.74Q67.28-10.06 67.74-11.6 68.21-13.13 69.25-14.44 70.28-15.75 71.96-16.63 73.63-17.5 76.02-17.5L76.02-17.5 87.47-17.5 87.47-11.45 76.02-11.45Q74.73-11.45 74.02-10.66 73.31-9.86 73.31-8.69L73.31-8.69Q73.31-7.45 74.13-6.75 74.95-6.05 76.07-6.05L76.07-6.05 87.47-6.05Q88.76-6.05 89.47-6.84 90.18-7.62 90.18-8.79L90.18-8.79 90.18-17.65Q90.18-18.9 89.41-19.63 88.64-20.36 87.47-20.36L87.47-20.36 73.53-20.36 73.53-26.39 87.47-26.39Q88.79-26.39 90.31-25.93 91.84-25.46 93.15-24.43 94.45-23.39 95.33-21.72 96.21-20.04 96.21-17.65L96.21-17.65ZM125.19-17.5L125.19 0 118.84 0 118.84-17.5Q118.84-18.75 118.18-19.4 117.52-20.04 116.23-20.04L116.23-20.04 107.98-20.04 107.98 0 101.63 0 101.63-23.24Q101.63-23.9 101.87-24.48 102.12-25.05 102.56-25.48 103-25.9 103.58-26.15 104.17-26.39 104.83-26.39L104.83-26.39 116.28-26.39Q117.6-26.39 119.11-25.93 120.62-25.46 121.99-24.44L121.99-24.44 121.99-26.39 130.58-26.39Q131.49-26.39 132.49-26.18 133.49-25.98 134.48-25.54 135.47-25.1 136.37-24.4 137.27-23.71 137.96-22.72 138.64-21.73 139.06-20.43 139.47-19.14 139.47-17.5L139.47-17.5 139.47 0 133.12 0 133.12-17.5Q133.12-18.75 132.5-19.4 131.88-20.04 130.58-20.04L130.58-20.04 124.87-20.04Q125.19-18.87 125.19-17.5L125.19-17.5ZM177.36-6.35L177.36 0 154.46 0Q153.58 0 152.57-0.21 151.55-0.42 150.56-0.85 149.57-1.29 148.67-1.99 147.77-2.69 147.07-3.67 146.38-4.66 145.96-5.97 145.55-7.28 145.55-8.91L145.55-8.91 145.55-26.1Q145.55-26.98 145.75-27.99 145.96-29 146.4-29.99 146.84-30.98 147.55-31.88 148.26-32.79 149.25-33.48 150.23-34.18 151.53-34.59 152.82-35.01 154.46-35.01L154.46-35.01 177.36-35.01 177.36-28.66 154.46-28.66Q153.21-28.66 152.55-28 151.89-27.34 151.89-26.05L151.89-26.05 151.89-8.91Q151.89-7.69 152.57-7.02 153.24-6.35 154.46-6.35L154.46-6.35 177.36-6.35ZM211.05-17.5L211.05-8.91Q211.05-7.28 210.63-5.97 210.22-4.66 209.53-3.67 208.85-2.69 207.95-1.99 207.04-1.29 206.05-0.85 205.07-0.42 204.05-0.21 203.04 0 202.14 0L202.14 0 190.69 0Q189.37 0 187.8-0.46 186.24-0.93 184.91-1.99 183.58-3.05 182.69-4.75 181.8-6.45 181.8-8.91L181.8-8.91 181.8-17.5Q181.8-19.95 182.69-21.64 183.58-23.34 184.91-24.4 186.24-25.46 187.8-25.93 189.37-26.39 190.69-26.39L190.69-26.39 202.14-26.39Q204.58-26.39 206.29-25.51 208-24.63 209.05-23.3 210.09-21.97 210.57-20.41 211.05-18.85 211.05-17.5L211.05-17.5ZM204.7-8.91L204.7-17.46Q204.7-18.77 204.04-19.41 203.38-20.04 202.14-20.04L202.14-20.04 190.73-20.04Q189.47-20.04 188.81-19.4 188.15-18.75 188.15-17.5L188.15-17.5 188.15-8.91Q188.15-7.67 188.81-7.01 189.47-6.35 190.73-6.35L190.73-6.35 202.14-6.35Q203.43-6.35 204.06-7.01 204.7-7.67 204.7-8.91L204.7-8.91ZM245.69-14.65L245.69 0 239.34 0 239.34-14.65Q239.34-15.89 238.91-16.88 238.49-17.87 237.75-18.58 237.02-19.29 236.03-19.67 235.04-20.04 233.9-20.04L233.9-20.04 222.79-20.04 222.79 0 216.44 0 216.44-23.24Q216.44-23.9 216.68-24.48 216.93-25.05 217.37-25.48 217.81-25.9 218.39-26.15 218.98-26.39 219.64-26.39L219.64-26.39 233.94-26.39Q235.14-26.39 236.47-26.12 237.8-25.85 239.11-25.26 240.41-24.66 241.6-23.74 242.78-22.83 243.7-21.52 244.61-20.21 245.15-18.51 245.69-16.8 245.69-14.65L245.69-14.65ZM274.47-26.39L274.47-20.04 263.39-20.04 263.39 0 256.96 0 256.96-20.04 248.71-20.04 248.71-26.39 256.96-26.39 256.96-35.01 263.39-35.01 263.39-26.39 274.47-26.39ZM301.59-26.39L301.59-20.04 287.31-20.04Q286.02-20.04 285.36-19.4 284.7-18.75 284.7-17.5L284.7-17.5 284.7 0 278.35 0 278.35-17.5Q278.35-19.14 278.76-20.43 279.18-21.73 279.88-22.72 280.57-23.71 281.47-24.4 282.38-25.1 283.37-25.54 284.36-25.98 285.37-26.18 286.38-26.39 287.26-26.39L287.26-26.39 301.59-26.39ZM334.38-17.5L334.38-8.91Q334.38-7.28 333.96-5.97 333.55-4.66 332.86-3.67 332.18-2.69 331.28-1.99 330.37-1.29 329.38-0.85 328.4-0.42 327.38-0.21 326.37 0 325.47 0L325.47 0 314.02 0Q312.7 0 311.13-0.46 309.57-0.93 308.24-1.99 306.91-3.05 306.02-4.75 305.13-6.45 305.13-8.91L305.13-8.91 305.13-17.5Q305.13-19.95 306.02-21.64 306.91-23.34 308.24-24.4 309.57-25.46 311.13-25.93 312.7-26.39 314.02-26.39L314.02-26.39 325.47-26.39Q327.91-26.39 329.62-25.51 331.33-24.63 332.37-23.3 333.42-21.97 333.9-20.41 334.38-18.85 334.38-17.5L334.38-17.5ZM328.03-8.91L328.03-17.46Q328.03-18.77 327.37-19.41 326.71-20.04 325.47-20.04L325.47-20.04 314.06-20.04Q312.79-20.04 312.14-19.4 311.48-18.75 311.48-17.5L311.48-17.5 311.48-8.91Q311.48-7.67 312.14-7.01 312.79-6.35 314.06-6.35L314.06-6.35 325.47-6.35Q326.76-6.35 327.39-7.01 328.03-7.67 328.03-8.91L328.03-8.91ZM351.37-6.35L351.37 0 348.53 0Q347.17 0 345.62-0.46 344.07-0.93 342.72-1.99 341.38-3.05 340.5-4.75 339.62-6.45 339.62-8.91L339.62-8.91 339.62-37.55 345.97-37.55 345.97-8.91Q345.97-7.74 346.7-7.04 347.44-6.35 348.53-6.35L348.53-6.35 351.37-6.35Z" opacity="1" transform="matrix(1,0,0,1,0,0)" fill="#1e55b3" class="wordmark-text-0" data-fill-palette-color="primary" id="text-0"></path></svg></g></svg></g></svg></g></svg></g><g transform="matrix(1,0,0,1,161.43881052442003,0)"><svg viewBox="0 0 74.61997895115994 58.57201200585244" height="58.57201200585244" width="74.61997895115994"><g><svg xmlns="http://www.w3.org/2000/svg" xmlns:xlink="http://www.w3.org/1999/xlink" version="1.1" x="8" y="0" viewBox="15.372000694274902 15.39940357208252 69.2573013305664 69.20063018798828" enable-background="new 0 0 100 100" xml:space="preserve" height="58.57201200585244" width="58.619978951159936" class="icon-icon-0" data-fill-palette-color="accent" id="icon-0"><g fill="#ff585f" data-fill-palette-color="accent"><path fill="#ff585f" d="M57.081 15.456c0 0-4.556-0.76-5.611 3.29-1.056 4.051-0.321 8.375 2.386 9.08 2.705 0.707 5.551-3.067 6.515-6.76C61.332 17.375 58.169 15.74 57.081 15.456z" data-fill-palette-color="accent"></path><circle fill="#ff585f" cx="22.103" cy="60.376" r="6.731" data-fill-palette-color="accent"></circle><path fill="#ff585f" d="M31.954 84.319c0 0-2.635-1.169-1.018-4.373 1.616-3.206 8.106-14.662 8.106-14.662l1.65-13.623L30.412 55.51c0 0-1.213-3.3-5.56-4.344l14.441-7.214 6.511-13.1-10.714 3.05L25.694 39.8c0 0-2.247 0.793-3.201-0.759-0.954-1.553 0.016-3.192 1.044-3.72 1.025-0.527 10.101-6.356 10.101-6.356l13.892-5.769c0 0 0.57-0.104 1.113-0.023 0 0 0.515 6.022 4.509 7.203 3.99 1.182 8.135-4.396 8.135-4.396s0.733 0.192 1.848 0.654c0.66 0.276 8.553 4.29 8.553 4.29l9.749-2.934c0 0 2.487-0.585 3.064 1.614 0.614 2.344-1.158 3.014-1.475 3.106-0.315 0.095-11.561 3.219-11.561 3.219l-10.916-2.887c0 0-0.632 1.476 0.756 2.362L50.219 51.389l-4.986 15.719-9.746 16.392C35.486 83.499 34.241 85.271 31.954 84.319z" data-fill-palette-color="accent"></path><path fill="#ff585f" d="M38.811 42.269c0.538-2.605-3.203-4.422-3.203-4.422l-10.797 11.64L38.811 42.269z" data-fill-palette-color="accent"></path></g></svg></g></svg></g><g><rect width="84.90569052442002" height="3.8220582409581496" y="53.74995376489429" x="236.05878947557997" fill="#ff585f" data-fill-palette-color="secondary"></rect><rect width="84.90569052442002" height="3.8220582409581496" y="53.74995376489429" x="76.53312" fill="#ff585f" data-fill-palette-color="secondary"></rect></g></svg></g><defs></defs></svg><rect width="395.52" height="124.16607965925216" fill="none" stroke="none" visibility="hidden"></rect></g></svg>